<svg width="92" height="41" viewBox="0 0 92 41" fill="currentColor" xmlns="http://www.w3.org/2000/svg">
<g id="logo" fill="currentColor">
<path id="Vector" fill="currentColor" fill-rule="evenodd" clip-rule="evenodd" d="M13.8843 24.2V21.1414H10.8623V19.0469H6.96826V21.1414H4.69434V3.58281H0.800293V24.2H3.51904H4.69434H6.96826V39.6641H10.8623V30.6157H19.6416V39.6641H23.5356V19.0469H19.6416V27.5571H10.8623V24.2H13.8843Z" fill="#FDFCFC"/>
<path id="Vector_2" d="M34.9199 19.7V3.5H36.4399V18.56H41.0399V19.7H34.9199ZM43.6766 19.7L47.0966 3.5H48.6966L52.1366 19.7H50.6366L49.8366 15.36H45.9766L45.1566 19.7H43.6766ZM46.1966 14.26H49.6366L47.9166 5.52L46.1966 14.26ZM56.0679 19.7V3.5H57.6079V12.06L61.9279 3.5H63.3879L60.0679 10.46L64.1079 19.7H62.6079L59.0479 11.6L57.6079 14.24V19.7H56.0679ZM67.521 19.7V3.5H73.381V4.68H69.061V10.76H72.581V11.88H69.061V18.56H73.421V19.7H67.521Z" fill="#FDFCFC"/>
<path id="Vector_3" d="M34.8999 39.7V23.5H36.4399V30.68H41.5399V23.5H43.0599V39.7H41.5399V31.82H36.4399V39.7H34.8999ZM51.7365 39.9C50.6565 39.9 49.8098 39.6933 49.1965 39.28C48.5965 38.8533 48.1698 38.2667 47.9165 37.52C47.6765 36.76 47.5565 35.8933 47.5565 34.92V28.2C47.5565 27.2133 47.6831 26.36 47.9365 25.64C48.2031 24.9067 48.6365 24.34 49.2365 23.94C49.8498 23.54 50.6831 23.34 51.7365 23.34C52.7765 23.34 53.5965 23.54 54.1965 23.94C54.8098 24.34 55.2431 24.9067 55.4965 25.64C55.7498 26.36 55.8765 27.2133 55.8765 28.2V34.94C55.8765 35.9133 55.7498 36.7733 55.4965 37.52C55.2565 38.2533 54.8365 38.8333 54.2365 39.26C53.6365 39.6867 52.8031 39.9 51.7365 39.9ZM51.7365 38.68C52.4431 38.68 52.9831 38.54 53.3565 38.26C53.7298 37.9667 53.9831 37.5667 54.1165 37.06C54.2631 36.54 54.3365 35.94 54.3365 35.26V27.92C54.3365 27.24 54.2631 26.6467 54.1165 26.14C53.9831 25.6333 53.7298 25.2467 53.3565 24.98C52.9831 24.7 52.4431 24.56 51.7365 24.56C51.0165 24.56 50.4631 24.7 50.0765 24.98C49.7031 25.2467 49.4431 25.6333 49.2965 26.14C49.1631 26.6467 49.0965 27.24 49.0965 27.92V35.26C49.0965 35.94 49.1631 36.54 49.2965 37.06C49.4431 37.5667 49.7031 37.9667 50.0765 38.26C50.4631 38.54 51.0165 38.68 51.7365 38.68ZM64.3643 39.9C63.2709 39.9 62.4176 39.7067 61.8043 39.32C61.2043 38.92 60.7909 38.3733 60.5643 37.68C60.3376 36.9733 60.2243 36.1733 60.2243 35.28V23.5H61.7043V35.32C61.7043 35.9467 61.7709 36.52 61.9043 37.04C62.0509 37.5467 62.3176 37.9467 62.7043 38.24C63.0909 38.5333 63.6443 38.68 64.3643 38.68C65.0576 38.68 65.5976 38.5333 65.9843 38.24C66.3709 37.9333 66.6376 37.5267 66.7843 37.02C66.9443 36.5133 67.0243 35.9467 67.0243 35.32V23.5H68.4843V35.28C68.4843 36.1733 68.3643 36.9733 68.1243 37.68C67.8843 38.3733 67.4643 38.92 66.8643 39.32C66.2643 39.7067 65.4309 39.9 64.3643 39.9ZM76.5865 39.9C75.7065 39.9 74.9731 39.72 74.3865 39.36C73.8131 38.9867 73.3798 38.4733 73.0865 37.82C72.7931 37.1533 72.6131 36.38 72.5465 35.5L73.8865 35.1C73.9531 35.7667 74.0731 36.3733 74.2465 36.92C74.4198 37.4533 74.6931 37.88 75.0665 38.2C75.4398 38.5067 75.9531 38.66 76.6065 38.66C77.3265 38.66 77.8865 38.4733 78.2865 38.1C78.6865 37.7267 78.8865 37.1333 78.8865 36.32C78.8865 35.6 78.7065 34.98 78.3465 34.46C77.9998 33.94 77.5198 33.3933 76.9065 32.82L74.0465 30.08C73.5398 29.5867 73.1665 29.08 72.9265 28.56C72.6865 28.0267 72.5665 27.4467 72.5665 26.82C72.5665 25.7 72.8998 24.84 73.5665 24.24C74.2331 23.64 75.1198 23.34 76.2265 23.34C76.7998 23.34 77.3131 23.4133 77.7665 23.56C78.2331 23.7067 78.6265 23.9467 78.9465 24.28C79.2798 24.6 79.5398 25.02 79.7265 25.54C79.9131 26.06 80.0398 26.6933 80.1065 27.44L78.8065 27.78C78.7531 27.1 78.6398 26.52 78.4665 26.04C78.3065 25.5467 78.0465 25.1733 77.6865 24.92C77.3398 24.6667 76.8531 24.54 76.2265 24.54C75.5598 24.54 75.0131 24.7133 74.5865 25.06C74.1598 25.4067 73.9465 25.9467 73.9465 26.68C73.9465 27.12 74.0265 27.52 74.1865 27.88C74.3598 28.24 74.6598 28.6267 75.0865 29.04L77.9465 31.74C78.5865 32.34 79.1398 33.0067 79.6065 33.74C80.0731 34.4733 80.3065 35.3 80.3065 36.22C80.3065 37.0333 80.1465 37.7133 79.8265 38.26C79.5198 38.8067 79.0865 39.22 78.5265 39.5C77.9665 39.7667 77.3198 39.9 76.5865 39.9ZM84.3257 39.7V23.5H90.1857V24.68H85.8657V30.76H89.3857V31.88H85.8657V38.56H90.2257V39.7H84.3257Z" fill="#FDFCFC"/>
</g>
</svg>
